<?xml version="1.0" encoding="UTF-8" standalone="no"?>
<!DOCTYPE svg PUBLIC "-//W3C//DTD SVG 1.1//EN"
 "http://www.w3.org/Graphics/SVG/1.1/DTD/svg11.dtd">
<!-- Generated by graphviz version 13.1.2 (20250808.2320)
 -->
<!-- Title: RAGShowcase Pages: 1 -->
<svg width="636pt" height="735pt"
 viewBox="0.00 0.00 636.00 735.00" xmlns="http://www.w3.org/2000/svg" xmlns:xlink="http://www.w3.org/1999/xlink">
<g id="graph0" class="graph" transform="scale(1 1) rotate(0) translate(4 731)">
<title>RAGShowcase</title>
<polygon fill="white" stroke="none" points="-4,4 -4,-731 631.84,-731 631.84,4 -4,4"/>
<g id="clust4" class="cluster">
<title>cluster_data</title>
<path fill="none" stroke="#9ec5fe" d="M442.34,-8C442.34,-8 607.84,-8 607.84,-8 613.84,-8 619.84,-14 619.84,-20 619.84,-20 619.84,-89 619.84,-89 619.84,-95 613.84,-101 607.84,-101 607.84,-101 442.34,-101 442.34,-101 436.34,-101 430.34,-95 430.34,-89 430.34,-89 430.34,-20 430.34,-20 430.34,-14 436.34,-8 442.34,-8"/>
<text xml:space="preserve" text-anchor="middle" x="525.09" y="-83.7" font-family="Inter" font-size="14.00">Datasets / Files</text>
</g>
<g id="clust5" class="cluster">
<title>cluster_obs</title>
<path fill="none" stroke="#9ec5fe" stroke-dasharray="5,2" d="M460.22,-325C460.22,-325 590.97,-325 590.97,-325 596.97,-325 602.97,-331 602.97,-337 602.97,-337 602.97,-446 602.97,-446 602.97,-452 596.97,-458 590.97,-458 590.97,-458 460.22,-458 460.22,-458 454.22,-458 448.22,-452 448.22,-446 448.22,-446 448.22,-337 448.22,-337 448.22,-331 454.22,-325 460.22,-325"/>
<text xml:space="preserve" text-anchor="middle" x="525.59" y="-440.7" font-family="Inter" font-size="14.00">Observability (optional)</text>
</g>
<!-- API -->
<g id="node1" class="node">
<title>API</title>
<path fill="#cce5ff" stroke="black" d="M599.84,-649C599.84,-649 450.34,-649 450.34,-649 444.34,-649 438.34,-643 438.34,-637 438.34,-637 438.34,-623 438.34,-623 438.34,-617 444.34,-611 450.34,-611 450.34,-611 599.84,-611 599.84,-611 605.84,-611 611.84,-617 611.84,-623 611.84,-623 611.84,-637 611.84,-637 611.84,-643 605.84,-649 599.84,-649"/>
<text xml:space="preserve" text-anchor="middle" x="525.09" y="-631.7" font-family="Inter" font-size="14.00">API</text>
<text xml:space="preserve" text-anchor="middle" x="525.09" y="-616.7" font-family="Inter" font-size="14.00">(Express, RAG endpoints)</text>
</g>
<!-- QDRANT -->
<g id="node5" class="node">
<title>QDRANT</title>
<path fill="#cce5ff" stroke="black" d="M556.34,-315C556.34,-315 493.84,-315 493.84,-315 487.84,-315 481.84,-309 481.84,-303 481.84,-303 481.84,-289 481.84,-289 481.84,-283 487.84,-277 493.84,-277 493.84,-277 556.34,-277 556.34,-277 562.34,-277 568.34,-283 568.34,-289 568.34,-289 568.34,-303 568.34,-303 568.34,-309 562.34,-315 556.34,-315"/>
<text xml:space="preserve" text-anchor="middle" x="525.09" y="-297.7" font-family="Inter" font-size="14.00">Qdrant</text>
<text xml:space="preserve" text-anchor="middle" x="525.09" y="-282.7" font-family="Inter" font-size="14.00">(Vector DB)</text>
</g>
<!-- API&#45;&gt;QDRANT -->
<g id="edge6" class="edge">
<title>API&#45;&gt;QDRANT</title>
<path fill="none" stroke="#333333" d="M437.99,-635.8C400.79,-633.26 360.4,-622.79 336.05,-593.25 295.33,-543.85 382.97,-364.07 430.34,-321 441.92,-310.48 457.39,-304.29 472.48,-300.68"/>
<polygon fill="#333333" stroke="#333333" points="473.04,-303.43 480.3,-299.06 471.9,-297.94 473.04,-303.43"/>
<text xml:space="preserve" text-anchor="middle" x="364.84" y="-579.95" font-family="Times,serif" font-size="14.00">vector search (kNN)</text>
</g>
<!-- MONGO -->
<g id="node6" class="node">
<title>MONGO</title>
<path fill="#cce5ff" stroke="black" d="M580.34,-259C580.34,-259 469.84,-259 469.84,-259 463.84,-259 457.84,-253 457.84,-247 457.84,-247 457.84,-233 457.84,-233 457.84,-227 463.84,-221 469.84,-221 469.84,-221 580.34,-221 580.34,-221 586.34,-221 592.34,-227 592.34,-233 592.34,-233 592.34,-247 592.34,-247 592.34,-253 586.34,-259 580.34,-259"/>
<text xml:space="preserve" text-anchor="middle" x="525.09" y="-241.7" font-family="Inter" font-size="14.00">MongoDB</text>
<text xml:space="preserve" text-anchor="middle" x="525.09" y="-226.7" font-family="Inter" font-size="14.00">(State/Jobs/History)</text>
</g>
<!-- API&#45;&gt;MONGO -->
<g id="edge8" class="edge">
<title>API&#45;&gt;MONGO</title>
<path fill="none" stroke="#333333" d="M438.27,-622.46C404.7,-614.8 369.46,-599.91 348.8,-571.25 308,-514.64 381.26,-317.6 430.34,-268 435.81,-262.48 442.3,-258.04 449.3,-254.46"/>
<polygon fill="#333333" stroke="#333333" points="450.19,-257.13 456.32,-251.28 447.88,-252.03 450.19,-257.13"/>
<text xml:space="preserve" text-anchor="middle" x="364.84" y="-557.95" font-family="Times,serif" font-size="14.00">read/write meta</text>
</g>
<!-- REDIS -->
<g id="node7" class="node">
<title>REDIS</title>
<path fill="#cce5ff" stroke="black" d="M573.59,-203C573.59,-203 476.59,-203 476.59,-203 470.59,-203 464.59,-197 464.59,-191 464.59,-191 464.59,-177 464.59,-177 464.59,-171 470.59,-165 476.59,-165 476.59,-165 573.59,-165 573.59,-165 579.59,-165 585.59,-171 585.59,-177 585.59,-177 585.59,-191 585.59,-191 585.59,-197 579.59,-203 573.59,-203"/>
<text xml:space="preserve" text-anchor="middle" x="525.09" y="-185.7" font-family="Inter" font-size="14.00">Redis</text>
<text xml:space="preserve" text-anchor="middle" x="525.09" y="-170.7" font-family="Inter" font-size="14.00">(Queue + Cache)</text>
</g>
<!-- API&#45;&gt;REDIS -->
<g id="edge7" class="edge">
<title>API&#45;&gt;REDIS</title>
<path fill="none" stroke="#333333" stroke-dasharray="5,2" d="M461.47,-610.64C422.81,-595.04 377.09,-568.74 356.68,-527.25 324.92,-462.7 380.65,-264.02 430.34,-212 437.33,-204.69 446.12,-199.26 455.52,-195.23"/>
<polygon fill="#333333" stroke="#333333" points="456.38,-197.9 462.87,-192.45 454.4,-192.67 456.38,-197.9"/>
<text xml:space="preserve" text-anchor="middle" x="364.84" y="-513.95" font-family="Times,serif" font-size="14.00">cache get/set</text>
</g>
<!-- API&#45;&gt;REDIS -->
<g id="edge10" class="edge">
<title>API&#45;&gt;REDIS</title>
<path fill="none" stroke="#333333" d="M461.47,-610.64C422.81,-595.04 377.09,-568.74 356.68,-527.25 324.92,-462.7 380.65,-264.02 430.34,-212 437.33,-204.69 446.12,-199.26 455.52,-195.23"/>
<polygon fill="#333333" stroke="#333333" points="456.38,-197.9 462.87,-192.45 454.4,-192.67 456.38,-197.9"/>
<text xml:space="preserve" text-anchor="middle" x="364.84" y="-513.95" font-family="Times,serif" font-size="14.00">enqueue ingestion</text>
</g>
<!-- EMB -->
<g id="node8" class="node">
<title>EMB</title>
<path fill="#cce5ff" stroke="black" d="M565.72,-147C565.72,-147 484.47,-147 484.47,-147 478.47,-147 472.47,-141 472.47,-135 472.47,-135 472.47,-121 472.47,-121 472.47,-115 478.47,-109 484.47,-109 484.47,-109 565.72,-109 565.72,-109 571.72,-109 577.72,-115 577.72,-121 577.72,-121 577.72,-135 577.72,-135 577.72,-141 571.72,-147 565.72,-147"/>
<text xml:space="preserve" text-anchor="middle" x="525.09" y="-129.7" font-family="Inter" font-size="14.00">Embeddings</text>
<text xml:space="preserve" text-anchor="middle" x="525.09" y="-114.7" font-family="Inter" font-size="14.00">(OpenAI / bge)</text>
</g>
<!-- API&#45;&gt;EMB -->
<g id="edge5" class="edge">
<title>API&#45;&gt;EMB</title>
<path fill="none" stroke="#333333" d="M474.3,-610.66C459.27,-603.58 443.37,-594.64 430.34,-584 386.69,-548.34 371.38,-536.64 353.3,-483.25 305.39,-341.72 327.06,-263.97 430.34,-156 439.22,-146.72 451,-140.48 463.23,-136.28"/>
<polygon fill="#333333" stroke="#333333" points="463.89,-139.01 470.74,-134.02 462.27,-133.65 463.89,-139.01"/>
<text xml:space="preserve" text-anchor="middle" x="364.84" y="-469.95" font-family="Times,serif" font-size="14.00">embed(query)</text>
</g>
<!-- LLM -->
<g id="node9" class="node">
<title>LLM</title>
<path fill="#cce5ff" stroke="black" d="M576.59,-575C576.59,-575 473.59,-575 473.59,-575 467.59,-575 461.59,-569 461.59,-563 461.59,-563 461.59,-549 461.59,-549 461.59,-543 467.59,-537 473.59,-537 473.59,-537 576.59,-537 576.59,-537 582.59,-537 588.59,-543 588.59,-549 588.59,-549 588.59,-563 588.59,-563 588.59,-569 582.59,-575 576.59,-575"/>
<text xml:space="preserve" text-anchor="middle" x="525.09" y="-557.7" font-family="Inter" font-size="14.00">LLM</text>
<text xml:space="preserve" text-anchor="middle" x="525.09" y="-542.7" font-family="Inter" font-size="14.00">(OpenAI / Ollama)</text>
</g>
<!-- API&#45;&gt;LLM -->
<g id="edge9" class="edge">
<title>API&#45;&gt;LLM</title>
<path fill="none" stroke="#333333" d="M525.09,-610.69C525.09,-602.8 525.09,-593.51 525.09,-584.85"/>
<polygon fill="#333333" stroke="#333333" points="527.89,-584.96 525.09,-576.96 522.29,-584.96 527.89,-584.96"/>
<text xml:space="preserve" text-anchor="middle" x="513.84" y="-587.95" font-family="Times,serif" font-size="14.00">generate(answer)</text>
</g>
<!-- LOGS -->
<g id="node11" class="node">
<title>LOGS</title>
<path fill="#cce5ff" stroke="black" d="M545.09,-427C545.09,-427 505.09,-427 505.09,-427 499.09,-427 493.09,-421 493.09,-415 493.09,-415 493.09,-401 493.09,-401 493.09,-395 499.09,-389 505.09,-389 505.09,-389 545.09,-389 545.09,-389 551.09,-389 557.09,-395 557.09,-401 557.09,-401 557.09,-415 557.09,-415 557.09,-421 551.09,-427 545.09,-427"/>
<text xml:space="preserve" text-anchor="middle" x="525.09" y="-409.7" font-family="Inter" font-size="14.00">Logging</text>
<text xml:space="preserve" text-anchor="middle" x="525.09" y="-394.7" font-family="Inter" font-size="14.00">(log4js)</text>
</g>
<!-- API&#45;&gt;LOGS -->
<g id="edge16" class="edge">
<title>API&#45;&gt;LOGS</title>
<path fill="none" stroke="#333333" stroke-dasharray="5,2" d="M467.98,-610.54C454.33,-603.8 440.72,-595.07 430.34,-584 347.4,-495.49 365.65,-463.58 380.3,-444.75 404.25,-413.97 450.01,-406.67 483.71,-405.89"/>
<polygon fill="#333333" stroke="#333333" points="483.37,-408.69 491.35,-405.83 483.33,-403.09 483.37,-408.69"/>
<text xml:space="preserve" text-anchor="middle" x="364.84" y="-447.95" font-family="Times,serif" font-size="14.00">logs</text>
</g>
<!-- METRICS -->
<g id="node12" class="node">
<title>METRICS</title>
<path fill="#cce5ff" stroke="black" d="M568.72,-371C568.72,-371 481.47,-371 481.47,-371 475.47,-371 469.47,-365 469.47,-359 469.47,-359 469.47,-345 469.47,-345 469.47,-339 475.47,-333 481.47,-333 481.47,-333 568.72,-333 568.72,-333 574.72,-333 580.72,-339 580.72,-345 580.72,-345 580.72,-359 580.72,-359 580.72,-365 574.72,-371 568.72,-371"/>
<text xml:space="preserve" text-anchor="middle" x="525.09" y="-353.7" font-family="Inter" font-size="14.00">Metrics</text>
<text xml:space="preserve" text-anchor="middle" x="525.09" y="-338.7" font-family="Inter" font-size="14.00">(Prom/Grafana)</text>
</g>
<!-- API&#45;&gt;METRICS -->
<g id="edge18" class="edge">
<title>API&#45;&gt;METRICS</title>
<path fill="none" stroke="#333333" stroke-dasharray="5,2" d="M451.38,-610.57C420.73,-598.37 388.37,-579.09 371.3,-549.25 331.76,-480.09 371.76,-433.99 430.34,-380 438.8,-372.2 449.33,-366.57 460.27,-362.5"/>
<polygon fill="#333333" stroke="#333333" points="460.95,-365.23 467.66,-360.04 459.19,-359.91 460.95,-365.23"/>
<text xml:space="preserve" text-anchor="middle" x="364.84" y="-535.95" font-family="Times,serif" font-size="14.00">metrics</text>
</g>
<!-- WORKER -->
<g id="node2" class="node">
<title>WORKER</title>
<path fill="#cce5ff" stroke="black" d="M279.34,-266.5C279.34,-266.5 157.59,-266.5 157.59,-266.5 151.59,-266.5 145.59,-260.5 145.59,-254.5 145.59,-254.5 145.59,-225.5 145.59,-225.5 145.59,-219.5 151.59,-213.5 157.59,-213.5 157.59,-213.5 279.34,-213.5 279.34,-213.5 285.34,-213.5 291.34,-219.5 291.34,-225.5 291.34,-225.5 291.34,-254.5 291.34,-254.5 291.34,-260.5 285.34,-266.5 279.34,-266.5"/>
<text xml:space="preserve" text-anchor="middle" x="218.47" y="-249.2" font-family="Inter" font-size="14.00">Worker</text>
<text xml:space="preserve" text-anchor="middle" x="218.47" y="-234.2" font-family="Inter" font-size="14.00">(Ingestion jobs</text>
<text xml:space="preserve" text-anchor="middle" x="218.47" y="-219.2" font-family="Inter" font-size="14.00">Parse/Chunk/Embed)</text>
</g>
<!-- WORKER&#45;&gt;QDRANT -->
<g id="edge14" class="edge">
<title>WORKER&#45;&gt;QDRANT</title>
<path fill="none" stroke="#333333" d="M291.49,-257.28C297.52,-258.59 303.53,-259.85 309.34,-261 364.75,-271.98 428.7,-282.07 472.31,-288.57"/>
<polygon fill="#333333" stroke="#333333" points="471.74,-291.32 480.07,-289.72 472.56,-285.78 471.74,-291.32"/>
<text xml:space="preserve" text-anchor="middle" x="364.84" y="-282.85" font-family="Times,serif" font-size="14.00">upsert vectors</text>
</g>
<!-- WORKER&#45;&gt;MONGO -->
<g id="edge15" class="edge">
<title>WORKER&#45;&gt;MONGO</title>
<path fill="none" stroke="#333333" d="M291.66,-240C338.75,-240 400.13,-240 447.99,-240"/>
<polygon fill="#333333" stroke="#333333" points="447.86,-242.8 455.86,-240 447.86,-237.2 447.86,-242.8"/>
<text xml:space="preserve" text-anchor="middle" x="364.84" y="-243.2" font-family="Times,serif" font-size="14.00">job status</text>
</g>
<!-- WORKER&#45;&gt;REDIS -->
<g id="edge11" class="edge">
<title>WORKER&#45;&gt;REDIS</title>
<path fill="none" stroke="#333333" d="M291.5,-223.17C297.53,-221.88 303.53,-220.64 309.34,-219.5 357.78,-209.98 412.7,-200.93 454.87,-194.36"/>
<polygon fill="#333333" stroke="#333333" points="455.24,-197.13 462.72,-193.14 454.38,-191.6 455.24,-197.13"/>
<text xml:space="preserve" text-anchor="middle" x="364.84" y="-222.7" font-family="Times,serif" font-size="14.00">dequeue jobs</text>
</g>
<!-- WORKER&#45;&gt;EMB -->
<g id="edge13" class="edge">
<title>WORKER&#45;&gt;EMB</title>
<path fill="none" stroke="#333333" d="M253.71,-213.28C269.84,-201.78 289.8,-189.05 309.34,-180.5 358.92,-158.82 419.02,-145.1 463.01,-137.14"/>
<polygon fill="#333333" stroke="#333333" points="463.26,-139.94 470.66,-135.79 462.29,-134.43 463.26,-139.94"/>
<text xml:space="preserve" text-anchor="middle" x="364.84" y="-183.7" font-family="Times,serif" font-size="14.00">embed(chunks)</text>
</g>
<!-- DATA -->
<g id="node10" class="node">
<title>DATA</title>
<path fill="#cce5ff" stroke="black" d="M599.84,-69.5C599.84,-69.5 450.34,-69.5 450.34,-69.5 444.34,-69.5 438.34,-63.5 438.34,-57.5 438.34,-57.5 438.34,-28.5 438.34,-28.5 438.34,-22.5 444.34,-16.5 450.34,-16.5 450.34,-16.5 599.84,-16.5 599.84,-16.5 605.84,-16.5 611.84,-22.5 611.84,-28.5 611.84,-28.5 611.84,-57.5 611.84,-57.5 611.84,-63.5 605.84,-69.5 599.84,-69.5"/>
<text xml:space="preserve" text-anchor="middle" x="525.09" y="-52.2" font-family="Inter" font-size="14.00">Datasets</text>
<text xml:space="preserve" text-anchor="middle" x="525.09" y="-37.2" font-family="Inter" font-size="14.00">(local FS / S3)</text>
<text xml:space="preserve" text-anchor="middle" x="525.09" y="-22.2" font-family="Inter" font-size="14.00">(e.g., mythlang, rust&#45;docs)</text>
</g>
<!-- WORKER&#45;&gt;DATA -->
<g id="edge12" class="edge">
<title>WORKER&#45;&gt;DATA</title>
<path fill="none" stroke="#333333" d="M234.48,-213.42C250.18,-187.76 277.02,-149.37 309.34,-125.5 344.82,-99.31 389.63,-80.36 429.14,-67.29"/>
<polygon fill="#333333" stroke="#333333" points="429.81,-70.01 436.56,-64.89 428.09,-64.68 429.81,-70.01"/>
<text xml:space="preserve" text-anchor="middle" x="364.84" y="-128.7" font-family="Times,serif" font-size="14.00">read files</text>
</g>
<!-- WORKER&#45;&gt;LOGS -->
<g id="edge17" class="edge">
<title>WORKER&#45;&gt;LOGS</title>
<path fill="none" stroke="#333333" stroke-dasharray="5,2" d="M222.1,-266.76C230.11,-342.11 256.92,-553.22 309.34,-594 348.29,-624.29 382.94,-626.17 420.34,-594 442.84,-574.66 418.61,-555.25 430.34,-528 446.08,-491.47 475.7,-456.44 497.45,-433.75"/>
<polygon fill="#333333" stroke="#333333" points="499.28,-435.89 502.86,-428.2 495.27,-431.97 499.28,-435.89"/>
<text xml:space="preserve" text-anchor="middle" x="364.84" y="-620.62" font-family="Times,serif" font-size="14.00">logs</text>
</g>
<!-- WORKER&#45;&gt;METRICS -->
<g id="edge19" class="edge">
<title>WORKER&#45;&gt;METRICS</title>
<path fill="none" stroke="#333333" stroke-dasharray="5,2" d="M253.67,-266.98C269.79,-278.58 289.76,-291.41 309.34,-300 357.62,-321.16 415.95,-334.59 459.63,-342.49"/>
<polygon fill="#333333" stroke="#333333" points="459.14,-345.24 467.5,-343.87 460.11,-339.73 459.14,-345.24"/>
<text xml:space="preserve" text-anchor="middle" x="364.84" y="-337.3" font-family="Times,serif" font-size="14.00">metrics</text>
</g>
<!-- BOT -->
<g id="node3" class="node">
<title>BOT</title>
<path fill="#cce5ff" stroke="black" d="M254.59,-727C254.59,-727 182.34,-727 182.34,-727 176.34,-727 170.34,-721 170.34,-715 170.34,-715 170.34,-701 170.34,-701 170.34,-695 176.34,-689 182.34,-689 182.34,-689 254.59,-689 254.59,-689 260.59,-689 266.59,-695 266.59,-701 266.59,-701 266.59,-715 266.59,-715 266.59,-721 260.59,-727 254.59,-727"/>
<text xml:space="preserve" text-anchor="middle" x="218.47" y="-709.7" font-family="Inter" font-size="14.00">Telegram Bot</text>
<text xml:space="preserve" text-anchor="middle" x="218.47" y="-694.7" font-family="Inter" font-size="14.00">(telegraf.js)</text>
</g>
<!-- BOT&#45;&gt;API -->
<g id="edge4" class="edge">
<title>BOT&#45;&gt;API</title>
<path fill="none" stroke="#333333" d="M266.96,-699.84C307.93,-692.39 368.5,-680.35 420.34,-666 434.5,-662.08 449.52,-657.26 463.62,-652.44"/>
<polygon fill="#333333" stroke="#333333" points="464.19,-655.21 470.83,-649.94 462.35,-649.92 464.19,-655.21"/>
<text xml:space="preserve" text-anchor="middle" x="364.84" y="-694.5" font-family="Times,serif" font-size="14.00">ask</text>
</g>
<!-- WEB -->
<g id="node4" class="node">
<title>WEB</title>
<path fill="#cce5ff" stroke="black" d="M258.34,-671C258.34,-671 178.59,-671 178.59,-671 172.59,-671 166.59,-665 166.59,-659 166.59,-659 166.59,-645 166.59,-645 166.59,-639 172.59,-633 178.59,-633 178.59,-633 258.34,-633 258.34,-633 264.34,-633 270.34,-639 270.34,-645 270.34,-645 270.34,-659 270.34,-659 270.34,-665 264.34,-671 258.34,-671"/>
<text xml:space="preserve" text-anchor="middle" x="218.47" y="-653.7" font-family="Inter" font-size="14.00">Web (optional)</text>
<text xml:space="preserve" text-anchor="middle" x="218.47" y="-638.7" font-family="Inter" font-size="14.00">Next.js panel</text>
</g>
<!-- WEB&#45;&gt;API -->
<g id="edge3" class="edge">
<title>WEB&#45;&gt;API</title>
<path fill="none" stroke="#333333" d="M270.8,-648.29C313.83,-645.19 376.43,-640.66 428.63,-636.89"/>
<polygon fill="#333333" stroke="#333333" points="428.62,-639.7 436.4,-636.33 428.22,-634.12 428.62,-639.7"/>
<text xml:space="preserve" text-anchor="middle" x="364.84" y="-648.7" font-family="Times,serif" font-size="14.00">upload/query</text>
</g>
<!-- USER -->
<g id="node13" class="node">
<title>USER</title>
<ellipse fill="#e2e3e5" stroke="black" cx="28.92" cy="-680" rx="28.92" ry="18"/>
<text xml:space="preserve" text-anchor="middle" x="28.92" y="-674.2" font-family="Inter" font-size="14.00">User</text>
</g>
<!-- USER&#45;&gt;BOT -->
<g id="edge1" class="edge">
<title>USER&#45;&gt;BOT</title>
<path fill="none" stroke="#333333" d="M57.6,-684.13C84.61,-688.16 126.5,-694.42 160.63,-699.51"/>
<polygon fill="#333333" stroke="#333333" points="160.21,-702.28 168.53,-700.69 161.03,-696.74 160.21,-702.28"/>
<text xml:space="preserve" text-anchor="middle" x="101.72" y="-697.2" font-family="Times,serif" font-size="14.00">messages</text>
</g>
<!-- USER&#45;&gt;WEB -->
<g id="edge2" class="edge">
<title>USER&#45;&gt;WEB</title>
<path fill="none" stroke="#333333" d="M55.5,-672.28C62.08,-670.5 69.19,-668.76 75.84,-667.5 102.24,-662.49 131.74,-658.95 156.95,-656.52"/>
<polygon fill="#333333" stroke="#333333" points="157.17,-659.31 164.88,-655.78 156.65,-653.74 157.17,-659.31"/>
<text xml:space="preserve" text-anchor="middle" x="101.72" y="-670.7" font-family="Times,serif" font-size="14.00">browser</text>
</g>
</g>
</svg>
